<svg width="36" height="36" viewBox="0 0 36 36" fill="none" xmlns="http://www.w3.org/2000/svg">
<g id="Frame">
<g id="Group">
<g id="Group_2">
<g id="Group_3">
<path id="Vector" d="M17.4101 1.51029L11.179 4.42305C10.6493 4.67055 10.324 5.23502 10.3624 5.83858C10.4707 7.53396 10.8815 11.0094 12.4368 13.6019C14.3987 16.8722 16.8347 17.728 17.6875 17.9351C17.8932 17.9848 18.1062 17.9848 18.3118 17.9351C19.1644 17.728 21.6006 16.8722 23.5625 13.6019C25.1179 11.0095 25.5286 7.53382 25.6368 5.83858C25.6752 5.23502 25.3497 4.67055 24.8202 4.42305L18.5891 1.51029C18.2142 1.33479 17.7849 1.33479 17.4101 1.51029Z" fill="#FFA91A"/>
<path id="Vector_2" d="M14.7836 15.5363C14.7124 15.5363 14.6413 15.5096 14.5866 15.4559C13.9694 14.8501 13.4081 14.1288 12.9183 13.3125C11.8232 11.4872 11.3273 9.19372 11.1041 7.59102C11.0828 7.43718 11.1901 7.29514 11.3439 7.27377C11.498 7.25099 11.6398 7.35955 11.6613 7.51354C11.8773 9.06421 12.3543 11.2788 13.4007 13.0229C13.866 13.7986 14.3976 14.4821 14.9806 15.0543C15.0916 15.1631 15.0931 15.3411 14.9843 15.4521C14.9293 15.5082 14.8564 15.5363 14.7836 15.5363ZM11.2538 6.71563C11.11 6.71563 10.9874 6.60608 10.9741 6.46011L10.9659 6.36941C10.9525 6.21458 11.0673 6.07846 11.222 6.0651C11.3757 6.04963 11.5129 6.16635 11.5263 6.32104L11.5342 6.40864C11.5484 6.56333 11.4345 6.70016 11.2798 6.71436C11.2711 6.71521 11.2623 6.71563 11.2538 6.71563Z" fill="#FFC91D"/>
<path id="Vector_3" d="M24.8184 4.42305L22.3946 3.29004C22.687 3.58057 22.8502 3.99584 22.8225 4.43234C22.7141 6.12757 22.3036 9.60326 20.7482 12.1957C18.7863 15.4659 16.3503 16.3218 15.4975 16.5289C15.3235 16.5709 15.1445 16.5752 14.9688 16.5461C16.142 17.4686 17.1858 17.8138 17.6856 17.9351C17.8914 17.9848 18.1044 17.9848 18.31 17.9351C19.1626 17.728 21.5988 16.872 23.5607 13.6019C25.1161 11.0094 25.5267 7.53382 25.635 5.83859C25.6734 5.23502 25.3479 4.67055 24.8184 4.42305Z" fill="#F79219"/>
<path id="Vector_4" d="M24.8195 4.42307L23.6978 3.89868C24.0555 4.18893 24.261 4.64948 24.23 5.13548C24.1216 6.83071 23.7111 10.3064 22.1557 12.8988C20.1938 16.1691 17.7578 17.0249 16.905 17.232C16.6994 17.2817 16.4864 17.2817 16.2806 17.232C16.126 17.1945 15.9185 17.1352 15.6719 17.0443C16.5485 17.601 17.2896 17.8387 17.6869 17.9352C17.8926 17.9848 18.1057 17.9848 18.3113 17.9352C19.1639 17.728 21.6001 16.872 23.5619 13.6019C25.1174 11.0094 25.528 7.53384 25.6363 5.8386C25.6745 5.23504 25.349 4.67057 24.8195 4.42307Z" fill="#EF7816"/>
<path id="Vector_5" d="M17.5839 3.92843L13.1981 5.97861C12.8252 6.15284 12.5964 6.55011 12.6232 6.97493C12.6994 8.16828 12.9886 10.6144 14.0833 12.4392C15.4643 14.7409 17.1788 15.3434 17.779 15.4892C17.9238 15.5242 18.0737 15.5242 18.2184 15.4892C18.8186 15.3434 20.5332 14.7409 21.914 12.4392C23.0088 10.6144 23.2978 8.16814 23.3741 6.97493C23.4011 6.55011 23.1721 6.15284 22.7993 5.97861L18.4136 3.92843C18.1498 3.80511 17.8476 3.80511 17.5839 3.92843Z" fill="#F1F2F2"/>
<path id="Vector_6" d="M22.8022 5.9784L20.3044 4.81079C20.4833 5.01203 20.5826 5.28315 20.5644 5.56848C20.4882 6.76168 20.1992 9.208 19.1043 11.0327C17.7234 13.3345 16.0089 13.9369 15.4087 14.0826C15.4001 14.0847 15.3914 14.0854 15.3828 14.0873C16.3973 15.0608 17.362 15.3869 17.7816 15.4889C17.9264 15.5239 18.0763 15.5239 18.221 15.4889C18.8212 15.343 20.5359 14.7406 21.9167 12.439C23.0114 10.6142 23.3004 8.16793 23.3768 6.97473C23.4039 6.55004 23.1748 6.15264 22.8022 5.9784Z" fill="#E6E7E8"/>
<path id="Vector_7" d="M17.7088 12.489C17.5343 12.489 17.3653 12.424 17.2352 12.3055L15.2178 10.4667C14.9308 10.2051 14.9101 9.76043 15.1718 9.47342C15.4332 9.1864 15.878 9.16573 16.1651 9.42743L17.6138 10.7479L20.0265 7.56767C20.261 7.25843 20.7022 7.19782 21.0117 7.43253C21.3209 7.66723 21.3815 8.10837 21.1468 8.41775L18.2689 12.2111C18.1496 12.3683 17.9696 12.4683 17.773 12.4863C17.7516 12.488 17.7302 12.489 17.7088 12.489Z" fill="#414042"/>
</g>
<g id="Group_4">
<path id="Vector_8" d="M21.256 24.1248C21.4953 24.0373 21.7065 23.869 21.8438 23.631L22.6233 22.2809C22.6621 22.2137 22.639 22.1276 22.5718 22.0888L16.8347 18.7765C16.1621 18.3882 15.302 18.6186 14.9138 19.2912L14.4062 20.1701L21.256 24.1248Z" fill="#FCC4AE"/>
<g id="Group_5">
<path id="Vector_9" d="M25.2506 18.0593L14.3867 24.3316L19.229 32.7188L23.8812 30.0328C24.7802 29.5138 25.5234 28.7629 26.0331 27.8585L29.6893 25.7477L25.2506 18.0593Z" fill="#F2AD97"/>
<path id="Vector_10" d="M25.6289 27.1589L29.2849 25.0481L29.6884 25.747L26.0324 27.8578L25.6289 27.1589Z" fill="#E59076"/>
<g id="Group_6">
<path id="Vector_11" d="M31.2937 26.277L34.8757 24.209L29.1759 14.3367L25.5939 16.4047C25.0559 16.7153 24.8715 17.4034 25.1821 17.9415L29.757 25.8653C30.0676 26.4033 30.7557 26.5876 31.2937 26.277Z" fill="#377DE2"/>
<path id="Vector_12" d="M25.5939 16.4048L25.668 16.3621L29.6314 23.227C29.8543 23.613 30.3479 23.7452 30.7339 23.5224L33.5429 21.9006L34.8757 24.2091L31.2937 26.2771C30.7557 26.5878 30.0676 26.4034 29.757 25.8654L25.1821 17.9416C24.8715 17.4035 25.0559 16.7155 25.5939 16.4048Z" fill="#2266D3"/>
</g>
<path id="Vector_13" d="M25.6284 27.1594L26.032 27.8583C25.5222 28.7627 24.779 29.5136 23.88 30.0327L19.2278 32.7186L18.8242 32.0197L23.4764 29.3338C24.3754 28.8147 25.1186 28.0638 25.6284 27.1594Z" fill="#E59076"/>
</g>
<g id="Group_7">
<path id="Vector_14" d="M27.0755 27.484L10.7513 18.0593L6.3125 25.7474L9.96861 27.8582C10.4784 28.7626 11.2216 29.5135 12.1206 30.0326L15.8555 32.1889L19.7869 34.4587C20.3659 34.793 21.1062 34.5947 21.4407 34.0156C21.7749 33.4367 21.5766 32.6963 20.9975 32.362L23.0943 33.5725C23.6732 33.9068 24.4136 33.7085 24.7479 33.1294C25.0821 32.5505 24.8839 31.8101 24.3048 31.4758L25.3531 32.081C25.9321 32.4153 26.6725 32.217 27.0067 31.6379C27.341 31.0588 27.1426 30.3186 26.5636 29.9842L25.8647 29.5807C26.4437 29.915 27.1841 29.7166 27.5183 29.1376C27.8529 28.5587 27.6544 27.8184 27.0755 27.484Z" fill="#FCC4AE"/>
<g id="Group_8">
<path id="Vector_15" d="M4.707 26.277L1.125 24.209L6.82481 14.3367L10.4068 16.4047C10.9448 16.7153 11.1292 17.4034 10.8186 17.9415L6.24375 25.8653C5.93311 26.4033 5.24503 26.5876 4.707 26.277Z" fill="#377DE2"/>
<path id="Vector_16" d="M10.4068 16.4048L10.3327 16.3621L6.36933 23.227C6.14644 23.613 5.65284 23.7452 5.26683 23.5224L2.45784 21.9006L1.125 24.2091L4.707 26.2771C5.24503 26.5878 5.93311 26.4034 6.24375 25.8654L10.8186 17.9416C11.1292 17.4035 10.9448 16.7155 10.4068 16.4048Z" fill="#2266D3"/>
</g>
<g id="Group_9">
<path id="Vector_17" d="M24.8907 32.7243C24.5121 33.0366 23.9671 33.1017 23.5171 32.842L18.8867 30.1687L18.4648 30.8994L23.0952 33.5727C23.6742 33.9069 24.4145 33.7087 24.749 33.1296C24.8233 33.0005 24.8675 32.8631 24.8907 32.7243Z" fill="#F2AD97"/>
<path id="Vector_18" d="M27.15 31.233C26.7714 31.5453 26.2264 31.6104 25.7764 31.3507L20.0977 28.072L19.6758 28.8027L25.3545 32.0814C25.9335 32.4156 26.6738 32.2174 27.0081 31.6383C27.0826 31.5092 27.1267 31.3718 27.15 31.233Z" fill="#F2AD97"/>
<path id="Vector_19" d="M27.662 28.7325C27.2835 29.0448 26.7384 29.1099 26.2884 28.8502L21.3086 25.9751L20.8867 26.7058L25.8665 29.5809C26.4455 29.9151 27.1859 29.7167 27.5201 29.1378C27.5947 29.0087 27.6388 28.8713 27.662 28.7325Z" fill="#F2AD97"/>
<g id="Group_10">
<path id="Vector_20" d="M6.3125 25.7478L6.71602 25.0489L10.372 27.1598L9.96849 27.8587L6.3125 25.7478Z" fill="black"/>
<path id="Vector_21" d="M20.2089 33.7282L12.5243 29.3338C11.6253 28.8147 10.8821 28.0638 10.3723 27.1594L9.96875 27.8583C10.4785 28.7627 11.2217 29.5136 12.1207 30.0327L19.787 34.4588C20.366 34.7931 21.1064 34.5947 21.4408 34.0157C21.5153 33.8868 21.5593 33.7492 21.5825 33.6105C21.204 33.9228 20.6588 33.9879 20.2089 33.7282Z" fill="black"/>
</g>
</g>
</g>
<g id="Group_11">
<path id="Vector_22" d="M16.2144 34.4589L18.0491 33.3997C18.6281 33.0654 18.8265 32.3251 18.4922 31.7461C18.158 31.1671 17.4176 30.9687 16.8386 31.303L15.0039 32.3622C14.425 32.6964 14.2265 33.4368 14.5608 34.0158C14.8951 34.5947 15.6355 34.7932 16.2144 34.4589Z" fill="#F2AD97"/>
<path id="Vector_23" d="M17.6443 32.7007L15.8096 33.7599C15.3538 34.023 14.8009 33.952 14.4219 33.6293C14.4462 33.7615 14.4883 33.8927 14.5594 34.0159C14.8937 34.5948 15.6341 34.7932 16.213 34.459L18.0478 33.3998C18.6267 33.0655 18.8251 32.3251 18.4909 31.7462C18.4197 31.623 18.3273 31.5209 18.2249 31.4338C18.3151 31.9231 18.1002 32.4375 17.6443 32.7007Z" fill="#E59076"/>
<path id="Vector_24" d="M12.9058 33.5725L16.4878 31.5044C17.0668 31.1702 17.2652 30.4298 16.9309 29.8508C16.5967 29.2719 15.8563 29.0735 15.2773 29.4077L11.6953 31.4758C11.1164 31.81 10.9179 32.5504 11.2522 33.1294C11.5865 33.7083 12.3269 33.9067 12.9058 33.5725Z" fill="#F2AD97"/>
<path id="Vector_25" d="M16.0869 30.8057L12.5049 32.8737C12.0491 33.1369 11.4962 33.0658 11.1172 32.7431C11.1415 32.8753 11.1836 33.0065 11.2547 33.1297C11.589 33.7086 12.3294 33.9071 12.9083 33.5728L16.4903 31.5048C17.0693 31.1705 17.2677 30.4301 16.9334 29.8511C16.8623 29.728 16.7699 29.6259 16.6675 29.5388C16.7577 30.0281 16.5426 30.5425 16.0869 30.8057Z" fill="#E59076"/>
<path id="Vector_26" d="M10.648 32.081L14.9289 29.6094C15.5079 29.2752 15.7063 28.5348 15.372 27.9558C15.0378 27.3769 14.2974 27.1784 13.7184 27.5127L9.4375 29.9843C8.85855 30.3186 8.66013 31.059 8.99439 31.6379C9.32866 32.2169 10.069 32.4153 10.648 32.081Z" fill="#F2AD97"/>
<path id="Vector_27" d="M14.5241 28.9106L10.2432 31.3822C9.78739 31.6453 9.23445 31.5743 8.85547 31.2514C8.8798 31.3836 8.92184 31.5148 8.993 31.638C9.32727 32.217 10.0677 32.4154 10.6466 32.0811L14.9275 29.6095C15.5065 29.2752 15.7049 28.5348 15.3706 27.9559C15.2995 27.8327 15.2071 27.7306 15.1047 27.6436C15.1948 28.1331 14.9798 28.6475 14.5241 28.9106Z" fill="#E59076"/>
<path id="Vector_28" d="M10.1363 29.5808L13.3688 27.7144C13.9478 27.3801 14.1462 26.6397 13.8119 26.0608C13.4777 25.4818 12.7373 25.2834 12.1583 25.6177L8.92578 27.4841C8.34683 27.8183 8.14841 28.5587 8.48268 29.1377C8.81694 29.7166 9.55719 29.915 10.1363 29.5808Z" fill="#F2AD97"/>
<path id="Vector_29" d="M12.964 27.0156L9.73144 28.8818C9.27567 29.1449 8.72273 29.0739 8.34375 28.7512C8.36808 28.8834 8.41013 29.0146 8.48128 29.1377C8.81555 29.7167 9.55594 29.9151 10.1349 29.5809L13.3674 27.7146C13.9464 27.3804 14.1448 26.64 13.8105 26.0609C13.7394 25.9377 13.647 25.8356 13.5446 25.7485C13.6346 26.2381 13.4197 26.7525 12.964 27.0156Z" fill="#E59076"/>
<g id="Group_12">
<path id="Vector_30" d="M12.9751 27.4767L13.2583 27.3132C13.5945 27.119 13.7098 26.6889 13.5156 26.3527L13.4117 26.1727C13.2175 25.8365 12.7875 25.7212 12.4512 25.9154L12.168 26.0789C12.0334 26.1565 11.9874 26.3285 12.0651 26.4631L12.5909 27.3738C12.6685 27.5082 12.8405 27.5544 12.9751 27.4767Z" fill="#FFD2C0"/>
<path id="Vector_31" d="M14.5359 29.3718L14.8191 29.2082C15.1553 29.014 15.2706 28.584 15.0764 28.2477L14.9725 28.0677C14.7783 27.7315 14.3483 27.6162 14.012 27.8104L13.6034 28.0464C13.5381 28.084 13.5158 28.1674 13.5535 28.2327L14.1517 29.2688C14.2293 29.4034 14.4013 29.4495 14.5359 29.3718Z" fill="#FFD2C0"/>
<path id="Vector_32" d="M16.0961 31.2668L16.3794 31.1032C16.7156 30.909 16.8309 30.479 16.6367 30.1428L16.5328 29.9628C16.3386 29.6265 15.9086 29.5112 15.5723 29.7054L15.2891 29.869C15.1545 29.9466 15.1085 30.1186 15.1862 30.2531L15.712 31.1638C15.7896 31.2983 15.9617 31.3444 16.0961 31.2668Z" fill="#FFD2C0"/>
<path id="Vector_33" d="M17.6547 33.1618L17.938 32.9982C18.2742 32.804 18.3895 32.374 18.1953 32.0378L18.0914 31.8578C17.8972 31.5215 17.4671 31.4062 17.1309 31.6004L16.8477 31.764C16.7131 31.8416 16.6671 32.0136 16.7448 32.1482L17.2706 33.0588C17.3482 33.1933 17.5202 33.2394 17.6547 33.1618Z" fill="#FFD2C0"/>
</g>
</g>
<path id="Vector_34" d="M16.7906 23.41L21.7969 20.5196L21.0877 19.2913C20.6994 18.6187 19.8394 18.3882 19.1668 18.7766L13.4297 22.0889C13.3625 22.1277 13.3394 22.2137 13.3782 22.281L13.5249 22.5351C14.1851 23.6785 15.6472 24.0703 16.7906 23.41Z" fill="#F2AD97"/>
<path id="Vector_35" d="M15.4196 22.2875L16.0615 21.9169C16.2545 21.8055 16.3207 21.5587 16.2092 21.3656L15.8267 20.7031L14.0039 21.7556L14.1081 21.9361C14.3733 22.3953 14.9604 22.5526 15.4196 22.2875Z" fill="#FFD2C0"/>
</g>
</g>
</g>
</g>
</svg>
